<svg width="245" height="224" viewBox="0 0 245 224" fill="none" xmlns="http://www.w3.org/2000/svg">
<g clip-path="url(#clip0_883_357)">
<path d="M122 193.375C114.854 193.375 108.814 190.908 103.88 185.974C98.9462 181.04 96.4792 175 96.4792 167.854C96.4792 160.708 98.9462 154.668 103.88 149.734C108.814 144.8 114.854 142.333 122 142.333C129.146 142.333 135.186 144.8 140.12 149.734C145.054 154.668 147.521 160.708 147.521 167.854C147.521 175 145.054 181.04 140.12 185.974C135.186 190.908 129.146 193.375 122 193.375ZM64.3229 135.698L42.8854 113.75C52.9236 103.712 64.7074 95.7594 78.2369 89.893C91.7663 84.0267 106.354 81.0901 122 81.0833C137.646 81.0765 152.237 84.0539 165.773 90.0155C179.31 95.9772 191.09 104.059 201.115 114.26L179.677 135.698C172.191 128.212 163.514 122.342 153.646 118.088C143.778 113.835 133.229 111.708 122 111.708C110.771 111.708 100.222 113.835 90.3542 118.088C80.4861 122.342 71.809 128.212 64.3229 135.698ZM20.9375 92.3124L-0.5 70.8749C15.1528 54.8819 33.4427 42.3767 54.3698 33.3593C75.2969 24.3419 97.8403 19.8333 122 19.8333C146.16 19.8333 168.703 24.3419 189.63 33.3593C210.557 42.3767 228.847 54.8819 244.5 70.8749L223.062 92.3124C209.962 79.2117 194.779 68.9626 177.513 61.5649C160.247 54.1673 141.743 50.4651 122 50.4583C102.257 50.4514 83.7562 54.1537 66.4973 61.5649C49.2384 68.9762 34.0518 79.2253 20.9375 92.3124Z" fill="white"/>
</g>
<defs>
<clipPath id="clip0_883_357">
<rect width="245" height="224" fill="white"/>
</clipPath>
</defs>
</svg>
