<svg width="390" height="71" viewBox="0 0 390 71" fill="none" xmlns="http://www.w3.org/2000/svg">
<path d="M35.5 62.1252C33.4292 62.1252 31.6788 61.4102 30.249 59.9804C28.8191 58.5505 28.1042 56.8002 28.1042 54.7293C28.1042 52.6585 28.8191 50.9082 30.249 49.4783C31.6788 48.0484 33.4292 47.3335 35.5 47.3335C37.5708 47.3335 39.3212 48.0484 40.751 49.4783C42.1809 50.9082 42.8958 52.6585 42.8958 54.7293C42.8958 56.8002 42.1809 58.5505 40.751 59.9804C39.3212 61.4102 37.5708 62.1252 35.5 62.1252ZM18.7854 45.4106L12.5729 39.0502C15.4819 36.1411 18.8968 33.8366 22.8176 32.1365C26.7384 30.4365 30.9659 29.5855 35.5 29.5835C40.0341 29.5815 44.2626 30.4444 48.1853 32.172C52.1081 33.8997 55.522 36.2417 58.4271 39.1981L52.2146 45.4106C50.0451 43.2411 47.5306 41.5401 44.6708 40.3075C41.8111 39.0748 38.7542 38.4585 35.5 38.4585C32.2458 38.4585 29.1889 39.0748 26.3292 40.3075C23.4694 41.5401 20.9549 43.2411 18.7854 45.4106ZM6.2125 32.8377L0 26.6252C4.53611 21.9904 9.83646 18.3665 15.901 15.7533C21.9656 13.1401 28.4986 11.8335 35.5 11.8335C42.5014 11.8335 49.0344 13.1401 55.099 15.7533C61.1635 18.3665 66.4639 21.9904 71 26.6252L64.7875 32.8377C60.991 29.0411 56.5909 26.071 51.5874 23.9272C46.5839 21.7834 41.2214 20.7105 35.5 20.7085C29.7786 20.7065 24.4171 21.7794 19.4155 23.9272C14.414 26.0749 10.013 29.0451 6.2125 32.8377Z" fill="white"/>
<path d="M107.918 18.1562H104.185C104.116 17.6733 103.977 17.2443 103.767 16.8693C103.557 16.4886 103.287 16.1648 102.957 15.8977C102.628 15.6307 102.247 15.4261 101.815 15.2841C101.389 15.142 100.926 15.071 100.426 15.071C99.5227 15.071 98.7358 15.2955 98.0653 15.7443C97.3949 16.1875 96.875 16.8352 96.5057 17.6875C96.1364 18.5341 95.9517 19.5625 95.9517 20.7727C95.9517 22.017 96.1364 23.0625 96.5057 23.9091C96.8807 24.7557 97.4034 25.3949 98.0739 25.8267C98.7443 26.2585 99.5199 26.4744 100.401 26.4744C100.895 26.4744 101.352 26.4091 101.773 26.2784C102.199 26.1477 102.577 25.9574 102.906 25.7074C103.236 25.4517 103.509 25.142 103.724 24.7784C103.946 24.4148 104.099 24 104.185 23.5341L107.918 23.5511C107.821 24.3523 107.58 25.125 107.193 25.8693C106.813 26.608 106.298 27.2699 105.651 27.8551C105.009 28.4347 104.241 28.8949 103.349 29.2358C102.463 29.571 101.46 29.7386 100.341 29.7386C98.7841 29.7386 97.392 29.3864 96.1648 28.6818C94.9432 27.9773 93.9773 26.9574 93.267 25.6222C92.5625 24.2869 92.2102 22.6705 92.2102 20.7727C92.2102 18.8693 92.5682 17.25 93.2841 15.9148C94 14.5795 94.9716 13.5625 96.1989 12.8636C97.4261 12.1591 98.8068 11.8068 100.341 11.8068C101.352 11.8068 102.29 11.9489 103.153 12.233C104.023 12.517 104.793 12.9318 105.463 13.4773C106.134 14.017 106.679 14.679 107.099 15.4631C107.526 16.2472 107.798 17.1449 107.918 18.1562ZM110.564 29.5V12.0455H122.325V15.0881H114.254V19.2472H121.72V22.2898H114.254V26.4574H122.359V29.5H110.564ZM124.594 15.0881V12.0455H138.93V15.0881H133.586V29.5H129.938V15.0881H124.594ZM141.29 12.0455H144.972V23.0227H145.117L152.66 12.0455H155.89V29.5H152.2V18.5142H152.072L144.487 29.5H141.29V12.0455ZM164.494 12.0455H168.175V23.0227H168.32L175.863 12.0455H179.093V29.5H175.403V18.5142H175.275L167.69 29.5H164.494V12.0455ZM91.8523 44.0881V41.0455H106.188V44.0881H100.844V58.5H97.196V44.0881H91.8523ZM108.548 58.5V41.0455H120.31V44.0881H112.239V48.2472H119.705V51.2898H112.239V55.4574H120.344V58.5H108.548ZM122.298 58.5V55.5341L122.792 55.4915C123.428 55.4403 123.942 55.1989 124.335 54.767C124.727 54.3295 125.019 53.6335 125.212 52.679C125.411 51.7188 125.539 50.429 125.596 48.8097L125.886 41.0455H137.732V58.5H134.144V44.0028H129.312L129.039 50.0795C128.948 52.0341 128.715 53.6307 128.34 54.8693C127.971 56.108 127.38 57.0227 126.567 57.6136C125.761 58.2045 124.656 58.5 123.252 58.5H122.298ZM140.775 58.5V41.0455H152.536V44.0881H144.465V48.2472H151.931V51.2898H144.465V55.4574H152.57V58.5H140.775ZM166.03 58.5L160.422 51.0597H159.161V58.5H155.47V41.0455H159.161V48.017H159.902L165.697 41.0455H170.291L163.482 49.142L170.607 58.5H166.03ZM187.518 49.7727C187.518 51.6761 187.157 53.2955 186.435 54.6307C185.719 55.9659 184.742 56.9858 183.504 57.6903C182.271 58.3892 180.884 58.7386 179.344 58.7386C177.793 58.7386 176.401 58.3864 175.168 57.6818C173.935 56.9773 172.961 55.9574 172.245 54.6222C171.529 53.2869 171.171 51.6705 171.171 49.7727C171.171 47.8693 171.529 46.25 172.245 44.9148C172.961 43.5795 173.935 42.5625 175.168 41.8636C176.401 41.1591 177.793 40.8068 179.344 40.8068C180.884 40.8068 182.271 41.1591 183.504 41.8636C184.742 42.5625 185.719 43.5795 186.435 44.9148C187.157 46.25 187.518 47.8693 187.518 49.7727ZM183.776 49.7727C183.776 48.5398 183.592 47.5 183.222 46.6534C182.859 45.8068 182.344 45.1648 181.68 44.7273C181.015 44.2898 180.237 44.071 179.344 44.071C178.452 44.071 177.674 44.2898 177.009 44.7273C176.344 45.1648 175.827 45.8068 175.458 46.6534C175.094 47.5 174.913 48.5398 174.913 49.7727C174.913 51.0057 175.094 52.0455 175.458 52.892C175.827 53.7386 176.344 54.3807 177.009 54.8182C177.674 55.2557 178.452 55.4744 179.344 55.4744C180.237 55.4744 181.015 55.2557 181.68 54.8182C182.344 54.3807 182.859 53.7386 183.222 52.892C183.592 52.0455 183.776 51.0057 183.776 49.7727ZM190.251 41.0455H194.803L199.609 52.7727H199.814L204.621 41.0455H209.172V58.5H205.592V47.1392H205.447L200.93 58.4148H198.493L193.976 47.0966H193.831V58.5H190.251V41.0455ZM212.212 41.0455H216.763L221.57 52.7727H221.775L226.582 41.0455H231.133V58.5H227.553V47.1392H227.408L222.891 58.4148H220.454L215.937 47.0966H215.792V58.5H212.212V41.0455ZM236.057 58.7386V55.7386H237.003C237.474 55.7386 237.855 55.6818 238.145 55.5682C238.435 55.4489 238.665 55.2756 238.835 55.0483C239.011 54.8153 239.159 54.5256 239.278 54.179L239.491 53.608L233.151 41.0455H236.969L241.077 49.6364L244.511 41.0455H248.278L242.261 55.0739C241.972 55.7216 241.628 56.3239 241.23 56.8807C240.838 57.4375 240.335 57.8864 239.722 58.2273C239.108 58.5682 238.324 58.7386 237.369 58.7386H236.057ZM250.275 58.5V41.0455H253.965V48.2472H261.457V41.0455H265.138V58.5H261.457V51.2898H253.965V58.5H250.275ZM268.181 41.0455H271.863V52.0227H272.008L279.55 41.0455H282.781V58.5H279.09V47.5142H278.962L271.377 58.5H268.181V41.0455ZM296.389 58.5L290.781 51.0597H289.52V58.5H285.83V41.0455H289.52V48.017H290.261L296.057 41.0455H300.651L293.841 49.142L300.966 58.5H296.389ZM305.83 58.5H301.876L307.901 41.0455H312.657L318.674 58.5H314.719L310.347 45.0341H310.211L305.83 58.5ZM305.583 51.6392H314.924V54.5199H305.583V51.6392ZM337.59 55.5511L337.377 62.625H333.866V58.5H332.638V55.5511H337.59ZM320.775 58.5V41.0455H324.32V55.5341H331.582V41.0455H335.17V58.5H320.775ZM339.83 41.0455H343.511V52.0227H343.656L351.199 41.0455H354.429V58.5H350.739V47.5142H350.611L343.026 58.5H339.83V41.0455ZM357.478 41.0455H361.16V52.0227H361.305L368.847 41.0455H372.077V58.5H368.387V47.5142H368.259L360.674 58.5H357.478V41.0455Z" fill="white"/>
</svg>
