<svg width="52" height="52" viewBox="0 0 52 52" fill="none" xmlns="http://www.w3.org/2000/svg">
<path d="M25.9994 8.66647C30.5494 8.66647 34.8828 10.3998 38.1328 13.6498C44.8494 20.3665 44.8494 31.4165 38.1328 38.1331C34.2328 42.2498 28.8161 43.7665 23.6161 43.1165L24.6994 38.7831C28.3828 39.2165 32.2828 37.9165 35.0994 35.0998C40.0828 30.1165 40.0828 21.8831 35.0994 16.6831C32.7161 14.2998 29.2494 12.9998 25.9994 12.9998V22.9665L15.1661 12.1331L25.9994 1.2998V8.66647ZM13.6494 38.1331C8.0161 32.4998 7.14943 23.8331 11.0494 17.1165L14.2994 20.3665C11.9161 25.1331 12.7828 31.1998 16.8994 35.0998C17.9828 36.1831 19.2828 37.0498 20.7994 37.6998L19.4994 42.0331C17.3328 41.1665 15.3828 39.8665 13.6494 38.1331Z" fill="white"/>
</svg>
